<?xml version="1.0" encoding="utf-8"?>
<!-- Generator: Adobe Illustrator 23.1.1, SVG Export Plug-In . SVG Version: 6.00 Build 0)  -->
<svg version="1.1" id="Layer_1" xmlns="http://www.w3.org/2000/svg" xmlns:xlink="http://www.w3.org/1999/xlink" x="0px" y="0px"
	 viewBox="0 0 500 500" style="enable-background:new 0 0 500 500;" xml:space="preserve">
<style type="text/css">
	.st0{fill:#00906A;}
	.st1{fill:#FFFFFF;}
</style>
<path class="st0" d="M500,250c0,138.07-111.92,250-250,250S0,388.07,0,250C0,111.93,111.92,0,250,0S500,111.93,500,250"/>
<path class="st1" d="M388.11,364.9c-5.38-6.29-14.8-7.01-21.08-1.63c-13.59,11.71-27.9,13.47-29.68,13.64
	c-14.77-0.13-20.32-6.36-23.21-11.05c-19.63-31.95,7.25-122.66,38.94-199.52c15.89-33.09,26.86-58.6,30.2-66.5
	c3.13-7.45-0.18-16.06-7.49-19.46c-7.33-3.4-16-0.37-19.62,6.87c-0.75,1.51-13.24,26.48-28.07,61.78
	c-41.3,85.96-107.83,206.14-155.17,222.3c-8.34,2.87-13.19,0.99-16.11-0.66c-7.4-4.18-11.99-10.62-14.41-20.29
	c-6.46-25.59,4.18-65.35,20.09-104.89c18.91-5.64,39.41-9.91,68.36-15.04c8.13-1.44,13.55-9.22,12.11-17.38
	c-1.44-8.14-9.17-13.57-17.31-12.14c-18.63,3.3-34,6.3-47.76,9.52c15.56-32.95,32.47-62.54,43.08-79.42
	c4.39-6.99,2.31-16.25-4.66-20.67c-6.98-4.42-16.21-2.33-20.61,4.67c-5.51,8.77-33.47,54.02-55.82,106.26
	c-20.63,7.12-41.21,16.4-69.68,30.43c-7.4,3.65-10.46,12.63-6.82,20.06c2.59,5.3,7.9,8.38,13.41,8.38c2.21,0,4.46-0.5,6.57-1.55
	c16.22-7.99,29.67-14.34,41.99-19.57c-12.07,35.74-18.77,71.49-11.94,98.66c4.46,17.67,14.12,30.82,28.73,39.08
	c12.07,6.82,26.05,7.82,40.42,2.92c31.81-10.88,66.63-52.53,98.24-101.6c-6.08,37.47-3.43,65.06,7.88,83.46
	c7.1,11.55,21.39,25.32,49.14,25.32c0.22,0,0.44,0,0.69-0.01c2.55-0.12,25.7-1.7,47.96-20.85
	C392.73,380.65,393.46,371.18,388.11,364.9"/>
</svg>
